<svg width="32" height="32" viewBox="0 0 32 32" fill="none" xmlns="http://www.w3.org/2000/svg">
<path fill-rule="evenodd" clip-rule="evenodd" d="M25.6528 3.30574H30.4339V8.07723H25.6528V3.30574ZM16.0778 31.4839H32V26.2989H16.0778V31.4839ZM19.8389 16.7255V25.2666H32V16.7255H19.8389ZM23.926 22.9186C23.926 23.1673 23.7197 23.3702 23.4669 23.3702H22.4965C22.2437 23.3702 22.0375 23.1673 22.0375 22.9186V21.9638C22.0375 21.7151 22.2437 21.5122 22.4965 21.5122H23.4669C23.7197 21.5122 23.926 21.715 23.926 21.9638V22.9186ZM23.926 20.0283C23.926 20.277 23.7197 20.4799 23.4669 20.4799H22.4965C22.2437 20.4799 22.0375 20.277 22.0375 20.0283V19.0735C22.0375 18.8248 22.2437 18.6219 22.4965 18.6219H23.4669C23.7197 18.6219 23.926 18.8248 23.926 19.0735V20.0283ZM26.8635 22.9186C26.8635 23.1673 26.6573 23.3702 26.4045 23.3702H25.4341C25.1813 23.3702 24.9751 23.1673 24.9751 22.9186V21.9638C24.9751 21.7151 25.1812 21.5122 25.4341 21.5122H26.4045C26.6573 21.5122 26.8635 21.715 26.8635 21.9638V22.9186ZM26.8635 20.0283C26.8635 20.277 26.6573 20.4799 26.4045 20.4799H25.4341C25.1813 20.4799 24.9751 20.277 24.9751 20.0283V19.0735C24.9751 18.8248 25.1812 18.6219 25.4341 18.6219H26.4045C26.6573 18.6219 26.8635 18.8248 26.8635 19.0735V20.0283ZM29.8012 22.9186C29.8012 23.1673 29.595 23.3702 29.3422 23.3702H28.3717C28.1189 23.3702 27.9127 23.1673 27.9127 22.9186V21.9638C27.9127 21.7151 28.1189 21.5122 28.3717 21.5122H29.3422C29.595 21.5122 29.8012 21.715 29.8012 21.9638V22.9186ZM29.8012 20.0283C29.8012 20.277 29.595 20.4799 29.3422 20.4799H28.3717C28.1189 20.4799 27.9127 20.277 27.9127 20.0283V19.0735C27.9127 18.8248 28.1189 18.6219 28.3717 18.6219H29.3422C29.595 18.6219 29.8012 18.8248 29.8012 19.0735V20.0283ZM24.0867 9.10942V15.6932H32V9.10942H24.0867ZM27.5188 12.7708C27.5188 13.0195 27.3125 13.2225 27.0597 13.2225H26.3086C26.0558 13.2225 25.8496 13.0196 25.8496 12.7708V12.0317C25.8496 11.783 26.0558 11.5801 26.3086 11.5801H27.0597C27.3125 11.5801 27.5188 11.783 27.5188 12.0317V12.7708ZM30.2371 12.7708C30.2371 13.0195 30.0309 13.2225 29.7781 13.2225H29.0269C28.7741 13.2225 28.5679 13.0196 28.5679 12.7708V12.0317C28.5679 11.783 28.7741 11.5801 29.0269 11.5801H29.7781C30.0309 11.5801 30.2371 11.783 30.2371 12.0317V12.7708ZM23.9998 7.53077L21.4082 5.39813C21.3143 5.31142 21.1881 5.25826 21.0491 5.25826H20.2309L10.6634 0.729226V0.516129C10.6634 0.231097 10.4285 0 10.1388 0L8.34905 0.000580634C8.11744 0.000451602 7.90551 0.152516 7.84289 0.383032L7.70374 0.889484L3.14748 4.50297H0.52459C0.234885 4.50297 0 4.73406 0 5.0191V8.68129C0 8.96632 0.234885 9.19742 0.52459 9.19742H4.24682C4.53652 9.19742 4.77141 8.96632 4.77141 8.68129V8.44206H6.03469V28.5406H4.26321C3.97351 28.5406 3.73862 28.7717 3.73862 29.0568V31.4839C3.73862 31.7689 3.97351 32 4.26321 32H12.4349C12.7246 32 12.9595 31.7689 12.9595 31.4839V29.0567C12.9595 28.7717 12.7246 28.5406 12.4349 28.5406H10.6634V8.44206H20.4241V10.692H19.4876C19.1979 10.692 18.963 10.9231 18.963 11.2081V14.0832C18.963 14.3683 19.1979 14.5994 19.4876 14.5994H22.4098C22.6995 14.5994 22.9344 14.3683 22.9344 14.0832V11.2081C22.9344 10.9231 22.6995 10.692 22.4098 10.692H21.4733V8.44206L23.6639 8.44116C23.8134 8.4411 23.962 8.37832 24.0655 8.25658C24.2509 8.03832 24.2216 7.71335 23.9998 7.53077ZM8.74997 1.03226H9.61423V5.25826H7.58879L8.74997 1.03226ZM4.62066 4.65703L7.23915 2.58045L6.50334 5.25826H4.77141V5.0191C4.77141 4.878 4.7139 4.75019 4.62066 4.65703ZM5.81692 7.12181L5.23941 6.29052H6.66184L5.81692 7.12181ZM7.92826 6.50419L8.84866 7.40974H7.00787L7.92826 6.50419ZM7.0838 9.17187L9.39698 11.4477L7.0838 13.7235V9.17187ZM9.39698 18.4913L7.0838 20.7672V16.2155L9.39698 18.4913ZM7.0838 23.2591L9.39698 25.535L7.0838 27.8108V23.2591ZM9.61423 28.5406H7.82564L9.61423 26.7808V28.5406ZM9.61423 24.289L7.30111 22.0132L9.61423 19.7373V24.289ZM9.61423 17.2454L7.30111 14.9695L9.61423 12.6937V17.2454ZM9.61423 10.2017L7.82564 8.442H9.61423V10.2017ZM10.1151 7.19606L9.19469 6.29052H11.0355L10.1151 7.19606ZM11.3814 7.40981L12.3018 6.50426L13.2223 7.40981H11.3814ZM14.4887 7.19606L13.5683 6.29052H15.4091L14.4887 7.19606ZM15.7551 7.40981L16.6755 6.50426L17.5959 7.40981H15.7551ZM10.6633 5.25826V1.87006L17.8209 5.25826H10.6633ZM18.8623 7.19606L17.9418 6.29052H19.7827L18.8623 7.19606ZM20.9487 7.40981H20.1287L21.0813 6.47258L22.2203 7.40981H20.9487Z" fill="#A80000"/>
</svg>
