<svg width="38" height="31" viewBox="0 0 38 31" fill="none" xmlns="http://www.w3.org/2000/svg">
<path d="M8.88867 28.7964H11.0925V31.0002H8.88867V28.7964Z" fill="#A80000"/>
<path d="M17.7041 28.7964H19.9079V31.0002H17.7041V28.7964Z" fill="#A80000"/>
<path d="M26.5186 28.7964H28.7223V31.0002H26.5186V28.7964Z" fill="#A80000"/>
<path d="M36.144 11.8158L18.8057 17.9113V12.8553C18.8057 12.0776 18.0197 11.5438 17.2961 11.8316L0.694194 18.443C0.275033 18.6099 0 19.0155 0 19.4667V29.898C0 30.5065 0.493355 30.9999 1.1019 30.9999H6.68483V27.6942C6.68483 27.0856 7.17819 26.5923 7.78673 26.5923H12.1943C12.8029 26.5923 13.2962 27.0856 13.2962 27.6942V30.9999H15.5V27.6942C15.5 27.0856 15.9934 26.5923 16.6019 26.5923H21.0095C21.618 26.5923 22.1114 27.0856 22.1114 27.6942V30.9999H24.3152V27.6942C24.3152 27.0856 24.8085 26.5923 25.4171 26.5923H29.8246C30.4332 26.5923 30.9265 27.0856 30.9265 27.6942V30.9999H36.5095C37.118 30.9999 37.6114 30.5065 37.6114 29.898V12.8553C37.6114 12.0986 36.8625 11.563 36.144 11.8158Z" fill="#A80000"/>
<path d="M14.3982 1.1019C14.3982 0.493355 13.9048 0 13.2963 0H6.6849C6.07636 0 5.58301 0.493355 5.58301 1.1019V4.40758H14.3982V1.1019Z" fill="#A80000"/>
<path d="M32.0281 1.1019C32.0281 0.493355 31.5347 0 30.9262 0H24.3148C23.7062 0 23.2129 0.493355 23.2129 1.1019V4.40758H32.0281V1.1019Z" fill="#A80000"/>
<path d="M14.3982 6.61133H5.58301V14.1241L14.3982 10.6136V6.61133Z" fill="#A80000"/>
<path d="M32.0281 6.61133H23.2129V14.0258L32.0281 10.9267V6.61133Z" fill="#A80000"/>
</svg>
