<svg width="32" height="32" viewBox="0 0 32 32" fill="none" xmlns="http://www.w3.org/2000/svg">
<path d="M3.56738 11.4453H9.45983V12.8318C9.45983 13.1172 9.22535 13.3517 8.9399 13.3517H8.24668V23.6074H8.9399C9.22535 23.6074 9.45983 23.8368 9.45983 24.1273V25.5138H3.56738V24.1273C3.56738 23.8368 3.80184 23.6074 4.08731 23.6074H4.78054V13.3517H4.08731C3.80184 13.3517 3.56738 13.1172 3.56738 12.8318V11.4453Z" fill="#A80000"/>
<path d="M12.7734 11.4453H18.6659V12.8318C18.6659 13.1172 18.4314 13.3517 18.146 13.3517H17.4527V23.6074H18.146C18.4314 23.6074 18.6659 23.8368 18.6659 24.1273V25.5138H12.7734V24.1273C12.7734 23.8368 13.0079 23.6074 13.2934 23.6074H13.9866V13.3517H13.2934C13.0079 13.3517 12.7734 13.1172 12.7734 12.8318V11.4453Z" fill="#A80000"/>
<path d="M26.6588 23.6074H27.352C27.6375 23.6074 27.8719 23.8368 27.8719 24.1273V25.5138H21.9795V24.1273C21.9795 23.8368 22.214 23.6074 22.4994 23.6074H23.1926V13.3517H22.4994C22.214 13.3517 21.9795 13.1172 21.9795 12.8318V11.4453H27.8719V12.8318C27.8719 13.1172 27.6375 13.3517 27.352 13.3517H26.6588V23.6074Z" fill="#A80000"/>
<path d="M29.6303 27.1602V28.4956H1.81445V27.1602C1.81445 26.8135 2.0948 26.5332 2.44141 26.5332H29.0033C29.3499 26.5332 29.6303 26.8135 29.6303 27.1602Z" fill="#A80000"/>
<path d="M31.4409 31.2541V30.1409C31.4409 29.7939 31.1597 29.5127 30.8127 29.5127H0.628162C0.281237 29.5127 0 29.7939 0 30.1409V31.2541C0 31.601 0.281237 31.8822 0.628162 31.8822H30.8127C31.1597 31.8822 31.4409 31.601 31.4409 31.2541Z" fill="#A80000"/>
<path d="M15.0995 0.159467L1.61959 7.5208C1.41883 7.63044 1.29395 7.84094 1.29395 8.06968V9.80028C1.29395 10.1457 1.57394 10.4257 1.91934 10.4257H29.5242C29.8696 10.4257 30.1496 10.1457 30.1496 9.80028V8.06962C30.1496 7.84091 30.0248 7.63044 29.824 7.52079L16.3491 0.159561C15.9597 -0.0531538 15.4889 -0.0531887 15.0995 0.159467ZM15.7238 7.65357C14.5948 7.65357 13.6769 6.73565 13.6769 5.60663C13.6769 4.47758 14.5948 3.55966 15.7238 3.55966C16.8483 3.55966 17.7616 4.47758 17.7616 5.60663C17.7616 6.73565 16.8483 7.65357 15.7238 7.65357Z" fill="#A80000"/>
</svg>
