<svg width="28" height="31" viewBox="0 0 28 31" fill="none" xmlns="http://www.w3.org/2000/svg">
<path d="M1.68262 5.82488V28.4116C1.68262 28.6975 1.91444 28.9293 2.20036 28.9293H6.08346C6.36939 28.9293 6.60121 28.6975 6.60121 28.4116V25.6934C6.60121 25.5504 6.4853 25.4345 6.34233 25.4345H6.2305C5.95467 25.4345 5.71392 25.2263 5.69625 24.951C5.6769 24.6494 5.91552 24.399 6.2129 24.399H14.7381C15.0139 24.399 15.2547 24.6073 15.2724 24.8825C15.2917 25.1841 15.0531 25.4345 14.7557 25.4345H14.6263C14.4833 25.4345 14.3674 25.5504 14.3674 25.6934V28.4116C14.3674 28.6975 14.5992 28.9293 14.8851 28.9293H18.7682C19.0542 28.9293 19.286 28.6975 19.286 28.4116V5.82488C19.286 5.53895 19.0542 5.30713 18.7682 5.30713H2.20036C1.91444 5.30713 1.68262 5.53895 1.68262 5.82488ZM9.44881 22.2633C9.44881 22.5494 9.21712 22.7811 8.93107 22.7811H5.69515C5.4091 22.7811 5.17741 22.5494 5.17741 22.2633V19.0274C5.17741 18.7414 5.4091 18.5097 5.69515 18.5097H8.93107C9.21712 18.5097 9.44881 18.7414 9.44881 19.0274V22.2633ZM9.44881 15.9856C9.44881 16.2717 9.21712 16.5034 8.93107 16.5034H5.69515C5.4091 16.5034 5.17741 16.2717 5.17741 15.9856V12.7497C5.17741 12.4637 5.4091 12.232 5.69515 12.232H8.93107C9.21712 12.232 9.44881 12.4637 9.44881 12.7497V15.9856ZM9.44881 9.70797C9.44881 9.99403 9.21712 10.2257 8.93107 10.2257H5.69515C5.4091 10.2257 5.17741 9.99403 5.17741 9.70797V6.47206C5.17741 6.186 5.4091 5.95431 5.69515 5.95431H8.93107C9.21712 5.95431 9.44881 6.186 9.44881 6.47206V9.70797ZM15.7912 22.2633C15.7912 22.5494 15.5595 22.7811 15.2735 22.7811H12.0375C11.7515 22.7811 11.5198 22.5494 11.5198 22.2633V19.0274C11.5198 18.7414 11.7515 18.5097 12.0375 18.5097H15.2735C15.5595 18.5097 15.7912 18.7414 15.7912 19.0274V22.2633ZM15.7912 15.9856C15.7912 16.2717 15.5595 16.5034 15.2735 16.5034H12.0375C11.7515 16.5034 11.5198 16.2717 11.5198 15.9856V12.7497C11.5198 12.4637 11.7515 12.232 12.0375 12.232H15.2735C15.5595 12.232 15.7912 12.4637 15.7912 12.7497V15.9856ZM15.7912 9.70797C15.7912 9.99403 15.5595 10.2257 15.2735 10.2257H12.0375C11.7515 10.2257 11.5198 9.99403 11.5198 9.70797V6.47206C11.5198 6.186 11.7515 5.95431 12.0375 5.95431H15.2735C15.5595 5.95431 15.7912 6.186 15.7912 6.47206V9.70797Z" fill="#A80000"/>
<path d="M13.3318 25.693V28.67C13.3318 28.813 13.2159 28.9289 13.0729 28.9289H11.2608C11.1179 28.9289 11.002 28.813 11.002 28.67V25.693C11.002 25.55 11.1179 25.4341 11.2608 25.4341H13.0729C13.2159 25.4341 13.3318 25.55 13.3318 25.693Z" fill="#A80000"/>
<path d="M9.96658 25.693V28.67C9.96658 28.813 9.85067 28.9289 9.7077 28.9289H7.89559C7.75263 28.9289 7.63672 28.813 7.63672 28.67V25.693C7.63672 25.55 7.75263 25.4341 7.89559 25.4341H9.7077C9.85067 25.4341 9.96658 25.55 9.96658 25.693Z" fill="#A80000"/>
<path d="M8.41331 7.24862V8.9313C8.41331 9.07426 8.2974 9.19017 8.15444 9.19017H6.47176C6.3288 9.19017 6.21289 9.07426 6.21289 8.9313V7.24862C6.21289 7.10566 6.3288 6.98975 6.47176 6.98975H8.15444C8.2974 6.98975 8.41331 7.10566 8.41331 7.24862Z" fill="#A80000"/>
<path d="M14.7561 7.24862V8.9313C14.7561 9.07426 14.6402 9.19017 14.4972 9.19017H12.8145C12.6716 9.19017 12.5557 9.07426 12.5557 8.9313V7.24862C12.5557 7.10566 12.6716 6.98975 12.8145 6.98975H14.4972C14.6402 6.98975 14.7561 7.10566 14.7561 7.24862Z" fill="#A80000"/>
<path d="M8.41331 19.8038V21.4865C8.41331 21.6294 8.2974 21.7453 8.15444 21.7453H6.47176C6.3288 21.7453 6.21289 21.6294 6.21289 21.4865V19.8038C6.21289 19.6608 6.3288 19.5449 6.47176 19.5449H8.15444C8.2974 19.5449 8.41331 19.6608 8.41331 19.8038Z" fill="#A80000"/>
<path d="M14.7561 19.8038V21.4865C14.7561 21.6294 14.6402 21.7453 14.4972 21.7453H12.8145C12.6716 21.7453 12.5557 21.6294 12.5557 21.4865V19.8038C12.5557 19.6608 12.6716 19.5449 12.8145 19.5449H14.4972C14.6402 19.5449 14.7561 19.6608 14.7561 19.8038Z" fill="#A80000"/>
<path d="M8.41331 13.5265V15.2091C8.41331 15.3521 8.2974 15.468 8.15444 15.468H6.47176C6.3288 15.468 6.21289 15.3521 6.21289 15.2091V13.5265C6.21289 13.3835 6.3288 13.2676 6.47176 13.2676H8.15444C8.2974 13.2676 8.41331 13.3835 8.41331 13.5265Z" fill="#A80000"/>
<path d="M14.7561 13.5265V15.2091C14.7561 15.3521 14.6402 15.468 14.4972 15.468H12.8145C12.6716 15.468 12.5557 15.3521 12.5557 15.2091V13.5265C12.5557 13.3835 12.6716 13.2676 12.8145 13.2676H14.4972C14.6402 13.2676 14.7561 13.3835 14.7561 13.5265Z" fill="#A80000"/>
<path d="M20.451 30.9998H0.517746C0.231821 30.9998 0 30.768 0 30.4821C0 30.1962 0.231821 29.9644 0.517746 29.9644H20.451C20.7369 29.9644 20.9687 30.1962 20.9687 30.4821C20.9687 30.768 20.7369 30.9998 20.451 30.9998Z" fill="#A80000"/>
<path d="M26.4048 6.73047H22.5864C21.7302 6.73047 21.0332 7.42748 21.0332 8.28371V24.0103C21.0332 24.8665 21.7302 25.5635 22.5864 25.5635H26.4048C27.261 25.5635 27.9581 24.8665 27.9581 24.0103V8.28371C27.9581 7.42748 27.261 6.73047 26.4048 6.73047ZM25.0457 21.4862C25.0457 21.7723 24.814 22.004 24.528 22.004C24.2419 22.004 24.0102 21.7723 24.0102 21.4862V10.743C24.0102 10.4569 24.2419 10.2253 24.528 10.2253C24.814 10.2253 25.0457 10.4569 25.0457 10.743V21.4862Z" fill="#A80000"/>
<path d="M20.9687 1.55324V2.71817C20.9687 3.57439 20.2717 4.27141 19.4155 4.27141H1.55324C0.697016 4.27141 0 3.57439 0 2.71817V1.55324C0 0.697016 0.697016 0 1.55324 0H19.4155C20.2717 0 20.9687 0.697016 20.9687 1.55324Z" fill="#A80000"/>
</svg>
