<svg width="39" height="41" viewBox="0 0 39 41" fill="none" xmlns="http://www.w3.org/2000/svg">
<path d="M28.8105 24.7837C28.8106 25.2871 28.6614 25.7792 28.3818 26.1977C28.1022 26.6163 27.7048 26.9426 27.2397 27.1353C26.7747 27.3279 26.263 27.3784 25.7692 27.2802C25.2755 27.182 24.822 26.9396 24.4661 26.5837C24.1101 26.2277 23.8678 25.7742 23.7696 25.2805C23.6714 24.7868 23.7218 24.2751 23.9145 23.81C24.1072 23.345 24.4335 22.9476 24.852 22.668C25.2706 22.3884 25.7627 22.2392 26.2661 22.2393C26.9407 22.24 27.5874 22.5083 28.0644 22.9853C28.5414 23.4624 28.8097 24.1091 28.8105 24.7837Z" fill="#A80000"/>
<path d="M23.1466 33.6787V38.0031H15.8447V33.6787C15.8447 32.1463 17.1292 30.8994 18.709 30.8994H20.2824C21.8621 30.8994 23.1466 32.1463 23.1466 33.6787Z" fill="#A80000"/>
<path d="M2.76953 19.8208V38.0027H14.868V33.6784C14.868 31.6076 16.5905 29.9228 18.7085 29.9228H20.2819C22.3999 29.9228 24.1224 31.6076 24.1224 33.6784V38.0027H36.2209V19.8208H2.76953ZM14.5154 27.0523C14.5154 27.1489 14.4868 27.2433 14.4332 27.3237C14.3796 27.404 14.3033 27.4666 14.2141 27.5036C14.1248 27.5406 14.0266 27.5503 13.9319 27.5314C13.8371 27.5125 13.7501 27.466 13.6819 27.3976L10.0695 23.7848V27.0648C10.0695 27.1943 10.0181 27.3184 9.92652 27.41C9.83497 27.5015 9.71081 27.553 9.58135 27.553C9.45189 27.553 9.32772 27.5015 9.23618 27.41C9.14464 27.3184 9.09321 27.1943 9.09321 27.0648V22.6078C9.09336 22.5113 9.12208 22.4171 9.17575 22.3369C9.22942 22.2567 9.30564 22.1941 9.39479 22.1572C9.48394 22.1203 9.58203 22.1106 9.6767 22.1293C9.77136 22.148 9.85836 22.1944 9.92672 22.2625L13.5391 25.8753V22.6064C13.5391 22.4769 13.5905 22.3528 13.682 22.2612C13.7736 22.1697 13.8978 22.1183 14.0272 22.1183C14.1567 22.1183 14.2808 22.1697 14.3724 22.2612C14.4639 22.3528 14.5154 22.4769 14.5154 22.6064V27.0523ZM19.3085 26.9076H20.484V25.7345H19.2125C19.0831 25.7345 18.9589 25.683 18.8674 25.5915C18.7758 25.5 18.7244 25.3758 18.7244 25.2463C18.7244 25.1169 18.7758 24.9927 18.8674 24.9012C18.9589 24.8096 19.0831 24.7582 19.2125 24.7582H20.9722C21.1016 24.7582 21.2258 24.8096 21.3173 24.9012C21.4089 24.9927 21.4603 25.1169 21.4603 25.2463V27.3943C21.4604 27.4584 21.4478 27.5219 21.4233 27.5811C21.3988 27.6404 21.3628 27.6942 21.3175 27.7396C21.2721 27.7849 21.2183 27.8209 21.159 27.8454C21.0998 27.8699 21.0363 27.8825 20.9722 27.8824H19.3085C18.5068 27.8723 17.7414 27.5468 17.1781 26.9763C16.6147 26.4058 16.2989 25.6364 16.2989 24.8346C16.2989 24.0329 16.6147 23.2634 17.1781 22.693C17.7414 22.1225 18.5068 21.797 19.3085 21.7869H20.9722C21.1016 21.7869 21.2258 21.8383 21.3173 21.9299C21.4089 22.0214 21.4603 22.1456 21.4603 22.275C21.4603 22.4045 21.4089 22.5286 21.3173 22.6202C21.2258 22.7117 21.1016 22.7632 20.9722 22.7632H19.3085C18.7646 22.7715 18.2458 22.9934 17.8641 23.3809C17.4824 23.7685 17.2684 24.2907 17.2684 24.8346C17.2684 25.3786 17.4824 25.9008 17.8641 26.2883C18.2458 26.6759 18.7646 26.8978 19.3085 26.9061V26.9076ZM26.3446 28.386C25.6423 28.386 24.9557 28.1777 24.3718 27.7875C23.7878 27.3973 23.3326 26.8427 23.0638 26.1938C22.7951 25.5449 22.7248 24.8309 22.8618 24.1421C22.9988 23.4533 23.337 22.8205 23.8336 22.3239C24.3303 21.8272 24.963 21.489 25.6518 21.352C26.3407 21.215 27.0547 21.2853 27.7036 21.5541C28.3525 21.8229 28.9071 22.278 29.2973 22.862C29.6875 23.446 29.8957 24.1325 29.8957 24.8349C29.8946 25.7763 29.5201 26.6789 28.8544 27.3446C28.1887 28.0103 27.2861 28.3848 26.3446 28.386Z" fill="#A80000"/>
<path d="M6.58984 13.6997H32.4016V18.8445H6.58984V13.6997Z" fill="#A80000"/>
<path d="M10.4834 9.56641H28.5071V12.7234H10.4834V9.56641Z" fill="#A80000"/>
<path d="M24.5645 1.96174L19.0068 0V0.756815V4.32624V8.59074H19.9831V3.91093L24.5645 1.96174Z" fill="#A80000"/>
<path d="M0 38.979H38.9902V41.0001H0V38.979Z" fill="#A80000"/>
</svg>
