<svg width="31" height="31" viewBox="0 0 31 31" fill="none" xmlns="http://www.w3.org/2000/svg">
<path d="M11.2727 22.5455H19.7273V31H11.2727V22.5455ZM31 29.5909C31 29.9646 30.8515 30.323 30.5873 30.5873C30.323 30.8515 29.9646 31 29.5909 31H22.5455V21.1364C22.5455 20.7626 22.397 20.4042 22.1327 20.14C21.8685 19.8757 21.5101 19.7273 21.1364 19.7273H9.86364C9.48992 19.7273 9.13151 19.8757 8.86726 20.14C8.603 20.4042 8.45455 20.7626 8.45455 21.1364V31H1.40909C1.03538 31 0.676969 30.8515 0.412713 30.5873C0.148457 30.323 0 29.9646 0 29.5909C0 29.2172 0.148457 28.8588 0.412713 28.5945C0.676969 28.3303 1.03538 28.1818 1.40909 28.1818H2.81818V1.40909C2.81818 1.03538 2.96664 0.676969 3.23089 0.412713C3.49515 0.148457 3.85356 0 4.22727 0H26.7727C27.1464 0 27.5049 0.148457 27.7691 0.412713C28.0334 0.676969 28.1818 1.03538 28.1818 1.40909V28.1818H29.5909C29.9646 28.1818 30.323 28.3303 30.5873 28.5945C30.8515 28.8588 31 29.2172 31 29.5909ZM11.2727 12.6818C11.2727 12.3081 11.1243 11.9497 10.86 11.6854C10.5958 11.4212 10.2374 11.2727 9.86364 11.2727C9.48992 11.2727 9.13151 11.4212 8.86726 11.6854C8.603 11.9497 8.45455 12.3081 8.45455 12.6818V14.0909C8.45455 14.4646 8.603 14.823 8.86726 15.0873C9.13151 15.3515 9.48992 15.5 9.86364 15.5C10.2374 15.5 10.5958 15.3515 10.86 15.0873C11.1243 14.823 11.2727 14.4646 11.2727 14.0909V12.6818ZM11.2727 5.63636C11.2727 5.26265 11.1243 4.90424 10.86 4.63999C10.5958 4.37573 10.2374 4.22727 9.86364 4.22727C9.48992 4.22727 9.13151 4.37573 8.86726 4.63999C8.603 4.90424 8.45455 5.26265 8.45455 5.63636V7.04545C8.45455 7.41917 8.603 7.77758 8.86726 8.04183C9.13151 8.30609 9.48992 8.45455 9.86364 8.45455C10.2374 8.45455 10.5958 8.30609 10.86 8.04183C11.1243 7.77758 11.2727 7.41917 11.2727 7.04545V5.63636ZM16.9091 12.6818C16.9091 12.3081 16.7606 11.9497 16.4964 11.6854C16.2321 11.4212 15.8737 11.2727 15.5 11.2727C15.1263 11.2727 14.7679 11.4212 14.5036 11.6854C14.2394 11.9497 14.0909 12.3081 14.0909 12.6818V14.0909C14.0909 14.4646 14.2394 14.823 14.5036 15.0873C14.7679 15.3515 15.1263 15.5 15.5 15.5C15.8737 15.5 16.2321 15.3515 16.4964 15.0873C16.7606 14.823 16.9091 14.4646 16.9091 14.0909V12.6818ZM16.9091 5.63636C16.9091 5.26265 16.7606 4.90424 16.4964 4.63999C16.2321 4.37573 15.8737 4.22727 15.5 4.22727C15.1263 4.22727 14.7679 4.37573 14.5036 4.63999C14.2394 4.90424 14.0909 5.26265 14.0909 5.63636V7.04545C14.0909 7.41917 14.2394 7.77758 14.5036 8.04183C14.7679 8.30609 15.1263 8.45455 15.5 8.45455C15.8737 8.45455 16.2321 8.30609 16.4964 8.04183C16.7606 7.77758 16.9091 7.41917 16.9091 7.04545V5.63636ZM22.5455 12.6818C22.5455 12.3081 22.397 11.9497 22.1327 11.6854C21.8685 11.4212 21.5101 11.2727 21.1364 11.2727C20.7626 11.2727 20.4042 11.4212 20.14 11.6854C19.8757 11.9497 19.7273 12.3081 19.7273 12.6818V14.0909C19.7273 14.4646 19.8757 14.823 20.14 15.0873C20.4042 15.3515 20.7626 15.5 21.1364 15.5C21.5101 15.5 21.8685 15.3515 22.1327 15.0873C22.397 14.823 22.5455 14.4646 22.5455 14.0909V12.6818ZM22.5455 5.63636C22.5455 5.26265 22.397 4.90424 22.1327 4.63999C21.8685 4.37573 21.5101 4.22727 21.1364 4.22727C20.7626 4.22727 20.4042 4.37573 20.14 4.63999C19.8757 4.90424 19.7273 5.26265 19.7273 5.63636V7.04545C19.7273 7.41917 19.8757 7.77758 20.14 8.04183C20.4042 8.30609 20.7626 8.45455 21.1364 8.45455C21.5101 8.45455 21.8685 8.30609 22.1327 8.04183C22.397 7.77758 22.5455 7.41917 22.5455 7.04545V5.63636Z" fill="#A80000"/>
</svg>
