<svg width="35" height="35" viewBox="0 0 35 35" fill="none" xmlns="http://www.w3.org/2000/svg">
<path d="M7.67951 16.816H0.604246L5.4199 13.4422H10.8922L7.67951 16.816ZM27.3205 16.816H34.3958L29.5801 13.4422H24.1077L27.3205 16.816ZM13.696 35H16.772V24.9454H13.696V35ZM17.909 35H20.9849V24.9454H17.909V35ZM35 17.945V35H22.122V24.3808V23.8163H21.5535H17.909H16.772H13.1275H12.559V24.3808V35H0V17.945H8.16926L12.8346 13.0457L16.9315 8.74344V0H18.0685H24.3021L24.0092 0.189355L20.7187 2.3169L24.0092 4.44452L24.3021 4.63381H18.0685V8.74337L22.1654 13.0456L26.8307 17.945H35V17.945ZM5.44441 29.4008H2.2037V32.6187H5.44441V29.4008ZM5.44441 24.3808H2.2037V27.5987H5.44441V24.3808ZM10.6296 29.4008H7.38891V32.6187H10.6296V29.4008ZM10.6296 24.3808H7.38891V27.5987H10.6296V24.3808ZM20.1574 18.3311C20.1574 16.8738 18.9676 15.6924 17.5 15.6924C16.0324 15.6924 14.8426 16.8738 14.8426 18.3311C14.8426 19.7884 16.0324 20.9699 17.5 20.9699C18.9676 20.9699 20.1574 19.7885 20.1574 18.3311ZM27.6111 29.4008H24.3704V32.6187H27.6111V29.4008ZM27.6111 24.3808H24.3704V27.5987H27.6111V24.3808ZM32.7963 29.4008H29.5556V32.6187H32.7963V29.4008ZM32.7963 24.3808H29.5556V27.5987H32.7963V24.3808Z" fill="#A80000"/>
</svg>
