<svg width="67" height="68" viewBox="0 0 67 68" fill="none" xmlns="http://www.w3.org/2000/svg">
<path d="M18.9561 36.317C18.9561 38.6159 20.8273 40.4862 23.1272 40.4862C25.4273 40.4862 27.2986 38.6159 27.2986 36.317V28.1001H18.9561V36.317Z" fill="white"/>
<path d="M9.1416 36.317C9.1416 38.6159 11.0129 40.4862 13.3129 40.4862C15.613 40.4862 17.4841 38.6159 17.4841 36.317V28.1001H9.1416V36.317Z" fill="white"/>
<path d="M3.83435 40.4862C5.94869 40.4862 7.66871 38.767 7.66871 36.6535V28.1001H3.68136C1.65144 28.1001 0 29.7508 0 31.7799V36.6537C0 38.767 1.72017 40.4862 3.83435 40.4862Z" fill="white"/>
<path d="M28.7716 36.317C28.7716 38.6159 30.6429 40.4862 32.9428 40.4862C35.2428 40.4862 37.114 38.6159 37.114 36.317V28.1001H28.7715L28.7716 36.317Z" fill="white"/>
<path d="M38.5869 36.317C38.5869 38.6159 40.4581 40.4862 42.7582 40.4862C45.0583 40.4862 46.9294 38.6159 46.9294 36.317V28.1001H38.5869V36.317Z" fill="white"/>
<path d="M48.4014 36.317C48.4014 38.6159 50.2725 40.4862 52.5727 40.4862C54.8729 40.4862 56.744 38.6159 56.744 36.317V28.1001H48.4014V36.317Z" fill="white"/>
<path d="M62.878 28.1001H58.2168V36.317C58.2168 38.6159 60.0879 40.4862 62.388 40.4862C64.6882 40.4862 66.5593 38.6159 66.5593 36.317V31.7799C66.5593 29.7508 64.9079 28.1001 62.878 28.1001Z" fill="white"/>
<path d="M62.3875 41.9584C60.2877 41.9584 58.452 40.806 57.4802 39.1011C56.5081 40.8061 54.6724 41.9584 52.5726 41.9584C50.4729 41.9584 48.637 40.806 47.6651 39.1011C46.6931 40.8061 44.8575 41.9584 42.7578 41.9584C40.658 41.9584 38.8221 40.806 37.8503 39.1011C36.8782 40.8061 35.0425 41.9584 32.9427 41.9584C30.843 41.9584 29.0073 40.806 28.0352 39.1011C27.0632 40.8061 25.2275 41.9584 23.1276 41.9584C21.0276 41.9584 19.1921 40.806 18.2201 39.1011C17.248 40.8061 15.4123 41.9584 13.3125 41.9584C11.263 41.9584 9.46523 40.8606 8.47649 39.2228C7.57002 40.8529 5.82882 41.9584 3.83435 41.9584C2.32842 41.9584 0.966836 41.3281 0 40.3176V55.6756H66.5591V40.1131C65.5259 41.2462 64.0384 41.9584 62.3875 41.9584Z" fill="white"/>
<path d="M54.6318 57.1475H59.0495V68.0001H54.6318V57.1475Z" fill="white"/>
<path d="M7.50977 57.1475H11.9274V68.0001H7.50977V57.1475Z" fill="white"/>
<path d="M36.9131 16.5094H39.2287L39.7416 18.5613C40.152 20.2027 41.6206 21.349 43.3133 21.349H45.4803L44.3503 25.4004C44.2208 25.8653 44.5838 26.3341 45.06 26.3341C45.3821 26.3341 45.678 26.121 45.7688 25.7957L47.009 21.349H51.6508L52.891 25.7957C52.9818 26.1211 53.2776 26.3341 53.5998 26.3341C54.076 26.3341 54.439 25.8653 54.3095 25.4004L53.1794 21.349H55.3465C57.0392 21.349 58.5078 20.2027 58.9182 18.5613L59.4311 16.5094H61.7467C62.1534 16.5094 62.483 16.1799 62.483 15.7735C62.483 15.3671 62.1534 15.0376 61.7467 15.0376H36.9131C36.5064 15.0376 36.1768 15.3671 36.1768 15.7735C36.1768 16.1799 36.5064 16.5094 36.9131 16.5094Z" fill="white"/>
<path d="M39.7915 12.1156L39.7715 13.2716H58.8888L58.8688 12.1156C58.7813 7.08719 54.9514 3.00619 50.0664 2.63291V1.07525C50.0664 0.668694 49.7368 0.339355 49.3301 0.339355C48.9234 0.339355 48.5937 0.668838 48.5937 1.07525V2.63291C43.7086 3.00648 39.8788 7.08747 39.7915 12.1156Z" fill="white"/>
<path d="M59.4746 3.54765C59.9073 3.89183 59.3377 4.71835 59.3341 4.72353C58.9944 5.19852 59.3384 5.88745 59.9324 5.88745C60.1619 5.88745 60.3881 5.78056 60.5319 5.57958C61.0164 4.90246 61.6105 3.3657 60.3914 2.39598C59.9581 2.05123 60.5287 1.16968 60.5415 1.15023C60.7696 0.81556 60.6842 0.359154 60.3499 0.129511C60.0147 -0.100853 59.5564 -0.0155651 59.3262 0.319104C58.848 1.01466 58.2635 2.58456 59.4746 3.54765Z" fill="white"/>
<path d="M38.2695 4.03396C38.7023 4.37814 38.1326 5.20465 38.129 5.20984C37.5899 5.96374 38.7762 6.83564 39.3269 6.06589C39.8114 5.38877 40.4056 3.85186 39.1865 2.88228C38.753 2.53753 39.3238 1.65598 39.3366 1.63653C39.5646 1.30172 39.4792 0.845458 39.145 0.615815C38.8097 0.385595 38.3515 0.470595 38.1212 0.805407C37.6429 1.50082 37.0584 3.07072 38.2695 4.03396Z" fill="white"/>
<path d="M4.66504 16.5094H7.70184L8.16746 18.505C8.55817 20.1795 10.0324 21.3489 11.7527 21.3489H13.2324L12.1024 25.4002C11.9727 25.8651 12.3359 26.3339 12.8121 26.3339C13.1342 26.3339 13.4301 26.1208 13.5209 25.7955L14.7611 21.3489H19.4028L20.6431 25.7955C20.7339 26.121 21.0298 26.3339 21.3519 26.3339C21.8281 26.3339 22.1913 25.8651 22.0616 25.4002L20.9315 21.3489H22.4113C24.1316 21.3489 25.6058 20.1795 25.9965 18.505L26.462 16.5094H29.4988C29.9054 16.5094 30.2351 16.1799 30.2351 15.7735C30.2351 15.3671 29.9055 15.0376 29.4988 15.0376H4.66504C4.25848 15.0376 3.92871 15.3671 3.92871 15.7735C3.92871 16.1799 4.25834 16.5094 4.66504 16.5094Z" fill="white"/>
<path d="M17.8174 3.99852V2.44C17.8174 2.03344 17.4878 1.7041 17.0811 1.7041C16.6744 1.7041 16.3448 2.03358 16.3448 2.44V3.99852C12.2213 4.3123 8.71739 7.23629 7.68457 11.2512H26.4776C25.4448 7.23629 21.9409 4.3123 17.8174 3.99852Z" fill="white"/>
</svg>
