<svg width="59" height="68" viewBox="0 0 59 68" fill="none" xmlns="http://www.w3.org/2000/svg">
<path fill-rule="evenodd" clip-rule="evenodd" d="M27.4496 0C19.0181 5.37089 9.42214 9.11752 0 11.6536V45.2669C0 57.3344 15.095 63.56 27.4497 67.9999C30.9119 66.7556 34.5897 65.3711 38.0895 63.7571C37.5993 62.8936 37.2164 61.9611 36.9588 60.978C33.7135 62.4839 30.5079 63.6659 28.0128 64.5665L27.4496 64.7698L26.8865 64.5665C18.7439 61.6271 3.04065 55.6972 3.04065 45.2668V13.9686L4.22374 13.6146C11.9919 11.2899 19.6102 8.19095 26.6095 4.0782L27.4497 3.58451L28.2899 4.0782C35.2892 8.19095 42.9075 11.2901 50.6757 13.6146L51.8588 13.9686V45.2669C51.8588 45.8328 51.81 46.3845 51.7213 46.9241C52.7378 47.2452 53.694 47.7018 54.5688 48.2732C54.7838 47.3129 54.8994 46.3124 54.8994 45.2671V11.6536C45.4773 9.11752 35.8813 5.37089 27.4499 0H27.4496ZM38.2379 58.0222C38.2379 52.5117 42.7051 48.0446 48.2155 48.0446C53.726 48.0446 58.1931 52.5117 58.1931 58.0222C58.1931 63.5327 53.726 67.9998 48.2155 67.9998C42.7051 67.9998 38.2379 63.5327 38.2379 58.0222ZM52.2372 54.0228C52.561 53.6991 53.0861 53.6991 53.4098 54.0228C53.7335 54.3465 53.7336 54.8717 53.4098 55.1954L46.5834 62.0216C46.2033 62.4017 45.5424 62.3458 45.2517 61.7988L42.8916 57.7112C42.6626 57.3158 42.7975 56.8097 43.1929 56.5806C43.5882 56.3516 44.0945 56.4865 44.3235 56.8819L46.1736 60.0864L52.2372 54.0228ZM4.69918 15.2034C12.5899 12.842 20.3488 9.68045 27.4497 5.50786C34.5506 9.68032 42.3095 12.842 50.2003 15.2034V45.2669C50.2003 45.699 50.1674 46.1232 50.1042 46.5395C42.5233 45.3016 35.8194 51.6121 36.6481 59.2856C35.1081 60.0117 33.5605 60.6692 32.0795 61.2605V50.2743C35.8708 48.5135 38.5166 44.6657 38.5166 40.2294V21.9023C38.5166 20.7499 37.5738 19.8071 36.4214 19.8071C35.269 19.8071 34.326 20.7499 34.326 21.9023V37.8684C34.326 40.9966 29.5451 40.9966 29.5451 37.8684V21.9023C29.5451 20.7499 28.6024 19.8071 27.4499 19.8071C26.2973 19.8071 25.3546 20.7499 25.3546 21.9023V37.8684C25.3546 40.9966 20.5737 40.9966 20.5737 37.8684V21.9023C20.5737 20.7499 19.6308 19.8071 18.4784 19.8071C17.326 19.8071 16.383 20.7499 16.383 21.9023V40.2294C16.383 44.6657 19.0288 48.5134 22.8201 50.2743V61.2605C14.7496 58.0378 4.69932 52.8564 4.69932 45.2668L4.69918 15.2034Z" fill="white"/>
</svg>
