<svg width="71" height="68" viewBox="0 0 71 68" fill="none" xmlns="http://www.w3.org/2000/svg">
<path d="M26.1695 37.0713C28.5185 39.6981 30.8422 42.2618 33.1154 44.737C26.3211 52.4154 16.4453 63.4278 13.2628 66.0799C6.99882 71.283 -0.957396 64.2361 4.44778 57.2649C6.69573 54.3603 14.7025 46.9345 26.1695 37.0713Z" fill="white"/>
<path d="M69.664 18.5196L69.6513 18.5322C69.5951 18.6135 69.5317 18.6896 69.4619 18.7596C55.1533 33.0555 55.3554 33.3586 52.2866 34.2174C48.0811 35.3918 46.3383 33.2575 43.7873 34.1795C41.3247 31.9315 38.7736 29.6204 36.1721 27.2967C37.5107 24.5183 35.0986 22.7882 36.2983 18.3807C37.1824 15.2992 37.4602 15.5139 51.8445 1.14221C52.121 0.805156 52.465 0.529729 52.8544 0.333657C53.2438 0.137586 53.6699 0.0252156 54.1053 0.00377803C54.5407 -0.0176595 54.9758 0.0523111 55.3826 0.209186C55.7893 0.366062 56.1587 0.606365 56.467 0.914629C56.7753 1.22289 57.0156 1.59229 57.1724 1.99904C57.3293 2.40579 57.3993 2.84087 57.3778 3.2763C57.3564 3.71172 57.244 4.13783 57.048 4.52721C56.8519 4.91658 56.5765 5.26058 56.2394 5.53707L47.4244 14.3647C47.2685 14.5063 47.1429 14.678 47.0553 14.8695C46.9678 15.0611 46.92 15.2684 46.9149 15.4789C46.9098 15.6895 46.9475 15.8989 47.0258 16.0944C47.104 16.2899 47.2212 16.4675 47.3701 16.6165C47.519 16.7654 47.6966 16.8825 47.8921 16.9608C48.0877 17.039 48.2971 17.0767 48.5076 17.0716C48.7182 17.0666 48.9255 17.0188 49.117 16.9312C49.3085 16.8436 49.4803 16.7181 49.6219 16.5621L58.4495 7.74714C58.7261 7.41002 59.0702 7.13449 59.4597 6.93826C59.8491 6.74203 60.2753 6.62944 60.7108 6.60772C61.1464 6.58599 61.5817 6.65562 61.9887 6.81212C62.3958 6.96863 62.7656 7.20855 63.0744 7.51647C63.3832 7.82439 63.6241 8.1935 63.7818 8.60009C63.9395 9.00668 64.0104 9.44176 63.9899 9.87737C63.9694 10.313 63.858 10.7395 63.6629 11.1295C63.4678 11.5195 63.1933 11.8644 62.857 12.142L54.0294 20.9696C53.8734 21.1112 53.7479 21.2829 53.6603 21.4745C53.5727 21.666 53.5249 21.8733 53.5198 22.0839C53.5147 22.2944 53.5525 22.5038 53.6307 22.6993C53.709 22.8949 53.8261 23.0725 53.975 23.2214C54.1239 23.3703 54.3015 23.4874 54.4971 23.5657C54.6926 23.6439 54.902 23.6817 55.1125 23.6766C55.3231 23.6715 55.5304 23.6237 55.7219 23.5361C55.9135 23.4485 56.0852 23.323 56.2268 23.167L65.0544 14.3521C65.3208 14.0244 65.6512 13.7545 66.0253 13.5586C66.3994 13.3628 66.8095 13.2451 67.2306 13.2129C67.6516 13.1806 68.0748 13.2344 68.4744 13.371C68.874 13.5075 69.2417 13.724 69.5549 14.0072C69.8681 14.2904 70.1205 14.6344 70.2965 15.0183C70.4725 15.4022 70.5685 15.8178 70.5787 16.24C70.5889 16.6622 70.5131 17.082 70.3558 17.4739C70.1986 17.8658 69.9632 18.2216 69.664 18.5196Z" fill="white"/>
<path d="M64.5999 65.6253C63.417 66.7512 61.8365 67.3633 60.2038 67.3278C58.5711 67.2923 57.0188 66.6121 55.8859 65.4358C41.2367 50.1674 27.1425 34.3813 27.1425 34.3813C26.4662 33.6159 25.6177 33.0222 24.667 32.6489C23.7163 32.2756 22.6905 32.1336 21.6742 32.2344C16.7868 32.7017 10.9775 30.479 6.39317 25.8947C-0.56537 18.9235 -2.08084 9.14872 3.02124 4.04663C8.12333 -1.05545 17.9107 0.460021 24.8693 7.41856C29.4536 12.0029 31.6763 17.8122 31.209 22.6996C31.1122 23.7156 31.2562 24.7401 31.6292 25.6902C32.0022 26.6402 32.5937 27.4891 33.3559 28.1679C42.7989 36.5607 56.4379 49.2473 64.4104 56.9113C64.9959 57.4705 65.4654 58.1397 65.7918 58.8806C66.1183 59.6215 66.2954 60.4195 66.313 61.229C66.3306 62.0384 66.1884 62.8434 65.8944 63.5978C65.6004 64.3522 65.1605 65.0411 64.5999 65.6253Z" fill="white"/>
</svg>
