<svg width="66" height="66" viewBox="0 0 66 66" fill="none" xmlns="http://www.w3.org/2000/svg">
<path d="M25.3587 52.2925V54.3486C25.3587 55.4836 24.4375 56.4047 23.3026 56.4047C22.1676 56.4047 21.2464 55.4836 21.2464 54.3486V52.2925H16.4489C15.6922 52.2925 15.0781 52.9066 15.0781 53.6632V64.6291C15.0781 65.3858 15.6922 65.9999 16.4489 65.9999H30.1562C30.9129 65.9999 31.527 65.3858 31.527 64.6291V53.6632C31.527 52.9066 30.9129 52.2925 30.1562 52.2925H25.3587Z" fill="white"/>
<path d="M44.5491 52.2925V54.3486C44.5491 55.4836 43.628 56.4047 42.493 56.4047C41.358 56.4047 40.4369 55.4836 40.4369 54.3486V52.2925H35.6393C34.8826 52.2925 34.2686 52.9066 34.2686 53.6632V64.6291C34.2686 65.3858 34.8826 65.9999 35.6393 65.9999H49.3467C50.1033 65.9999 50.7174 65.3858 50.7174 64.6291V53.6632C50.7174 52.9066 50.1033 52.2925 49.3467 52.2925H44.5491Z" fill="white"/>
<path d="M34.9534 35.8438V37.8999C34.9534 39.0348 34.0322 39.956 32.8973 39.956C31.7623 39.956 30.8412 39.0348 30.8412 37.8999V35.8438H26.0436C25.2869 35.8438 24.6729 36.4578 24.6729 37.2145V48.1804C24.6729 48.937 25.2869 49.5511 26.0436 49.5511H39.751C40.5076 49.5511 41.1217 48.937 41.1217 48.1804V37.2145C41.1217 36.4578 40.5076 35.8438 39.751 35.8438H34.9534Z" fill="white"/>
<path d="M64.9072 21.6083L34.0656 0.361875C33.3638 -0.120625 32.4371 -0.120625 31.7326 0.361875L0.890979 21.6083C0.331718 21.9921 0 22.6254 0 23.3025V63.0539C0 64.5672 1.22818 65.7954 2.74148 65.7954H8.22443V32.8977C8.22443 31.3844 9.45261 30.1562 10.9659 30.1562H54.8295C56.3428 30.1562 57.571 31.3844 57.571 32.8977V65.7954H63.0539C64.5672 65.7954 65.7954 64.5672 65.7954 63.0539V23.3025C65.7954 22.6254 65.4637 21.9921 64.9072 21.6083Z" fill="white"/>
</svg>
