<svg width="69" height="69" viewBox="0 0 69 69" fill="none" xmlns="http://www.w3.org/2000/svg">
<circle cx="34.5" cy="34.5" r="34.5" fill="#A80000"/>
<path d="M29.0509 39.6566C27.0094 41.26 25.6952 43.7483 25.6952 46.5433V49.1718H20.4381C18.9836 49.1718 17.8096 47.9978 17.8096 46.5433V44.791C17.8096 41.4001 20.552 38.6577 23.9428 38.6577H25.6952C26.9393 38.6577 28.0871 39.0257 29.0509 39.6566Z" fill="#F3F0E9"/>
<path d="M45.8461 38.6576C48.0237 38.6576 49.7889 36.8923 49.7889 34.7148C49.7889 32.5372 48.0237 30.772 45.8461 30.772C43.6686 30.772 41.9033 32.5372 41.9033 34.7148C41.9033 36.8923 43.6686 38.6576 45.8461 38.6576Z" fill="#F3F0E9"/>
<path d="M24.8188 38.6576C26.9963 38.6576 28.7616 36.8923 28.7616 34.7148C28.7616 32.5372 26.9963 30.772 24.8188 30.772C22.6412 30.772 20.876 32.5372 20.876 34.7148C20.876 36.8923 22.6412 38.6576 24.8188 38.6576Z" fill="#F3F0E9"/>
<path d="M52.8566 44.791V46.5433C52.8566 47.9978 51.6825 49.1718 50.2281 49.1718H44.971V46.5433C44.971 43.7483 43.6567 41.26 41.6152 39.6566C42.579 39.0257 43.7268 38.6577 44.971 38.6577H46.7233C50.1142 38.6577 52.8566 41.4001 52.8566 44.791Z" fill="#F3F0E9"/>
<path d="M35.3326 39.5339C37.9941 39.5339 40.1516 37.3764 40.1516 34.715C40.1516 32.0535 37.9941 29.896 35.3326 29.896C32.6712 29.896 30.5137 32.0535 30.5137 34.715C30.5137 37.3764 32.6712 39.5339 35.3326 39.5339Z" fill="#F3F0E9"/>
<path d="M36.209 39.5342H34.4567C30.5919 39.5342 27.4473 42.6788 27.4473 46.5436V49.1721C27.4473 50.6213 28.6266 51.8007 30.0758 51.8007H40.5899C42.0391 51.8007 43.2185 50.6213 43.2185 49.1721V46.5436C43.2185 42.6788 40.0739 39.5342 36.209 39.5342Z" fill="#F3F0E9"/>
<path d="M48.0369 26.9906L45.9227 27.7424C45.3225 27.9553 44.696 27.5005 44.7135 26.8636L44.7749 24.6205L43.4063 22.8419C43.0181 22.3372 43.2573 21.6004 43.868 21.4199L46.0208 20.7855L47.2895 18.9341C47.6496 18.4093 48.4242 18.4093 48.7843 18.9341L50.053 20.7855L52.2057 21.4199C52.8164 21.5995 53.0556 22.3372 52.6675 22.8419L51.2989 24.6205L51.3602 26.8636C51.3777 27.4997 50.7504 27.9553 50.1511 27.7424L48.0369 26.9906Z" fill="#F3F0E9"/>
<path d="M22.6277 26.9906L20.5135 27.7424C19.9133 27.9553 19.2868 27.5005 19.3044 26.8636L19.3657 24.6205L17.9971 22.8419C17.609 22.3372 17.8482 21.6004 18.4589 21.4199L20.6116 20.7855L21.8803 18.9341C22.2404 18.4093 23.015 18.4093 23.3751 18.9341L24.6438 20.7855L26.7966 21.4199C27.4072 21.5995 27.6464 22.3372 27.2583 22.8419L25.8897 24.6205L25.951 26.8636C25.9686 27.4997 25.3412 27.9553 24.7419 27.7424L22.6277 26.9906Z" fill="#F3F0E9"/>
<path d="M35.3326 25.0193L32.8258 25.9104C32.1144 26.1636 31.3714 25.623 31.3924 24.8686L31.4651 22.2094L29.8424 20.1004C29.3824 19.502 29.6663 18.6285 30.3901 18.4147L32.9424 17.662L34.4468 15.4672C34.8735 14.8443 35.7926 14.8443 36.2193 15.4672L37.7237 17.662L40.276 18.4147C40.9997 18.6285 41.2836 19.502 40.8236 20.1004L39.2009 22.2094L39.2736 24.8686C39.2946 25.623 38.5508 26.1636 37.8402 25.9104L35.3326 25.0193Z" fill="#F3F0E9"/>
</svg>
