<svg width="69" height="69" viewBox="0 0 69 69" fill="none" xmlns="http://www.w3.org/2000/svg">
<circle cx="34.5" cy="34.5" r="34.5" fill="#A80000"/>
<path fill-rule="evenodd" clip-rule="evenodd" d="M33.912 18.46C34.0378 18.4063 34.1803 18.4063 34.3061 18.4599L49.4458 24.9094C49.6296 24.9877 49.7488 25.1673 49.7488 25.366V37.6007C49.7488 46.3463 43.3439 53.9016 34.678 55.4007L34.109 55.5011L33.5401 55.4007C24.8779 53.9016 18.473 46.3463 18.473 37.6007V25.366C18.473 25.1673 18.5922 24.9876 18.776 24.9093L33.912 18.46ZM34.424 21.5547C34.2228 21.469 33.995 21.469 33.7937 21.5548L21.8905 26.6249C21.5963 26.7501 21.4056 27.0376 21.4056 27.3556V37.6348C21.4056 44.9684 26.7356 51.3301 33.9594 52.6963C34.0581 52.715 34.1596 52.715 34.2584 52.6963C41.4863 51.3301 46.8162 44.9684 46.8162 37.6348V27.3556C46.8162 27.0375 46.6255 26.7501 46.3313 26.6248L34.424 21.5547ZM34.109 23.1505L45.2162 27.8798V37.6348C45.2162 44.1575 40.5115 49.8218 34.109 51.1052C27.7102 49.8218 23.0056 44.1574 23.0056 37.6348V27.8798L34.109 23.1505ZM32.4674 38.1225L30.1096 35.7793C29.4988 35.1724 28.5072 35.1724 27.8965 35.7793C27.2858 36.3894 27.2858 37.3717 27.8965 37.9786L31.3625 41.426C31.9732 42.0329 32.9648 42.0329 33.5755 41.426C35.6658 39.3488 38.2488 36.7295 40.3296 34.643C40.9372 34.0329 40.9341 33.0506 40.3234 32.4469C39.7126 31.8431 38.721 31.8463 38.1134 32.4531L32.4674 38.1225ZM16.4357 48.7976C16.4797 48.6761 16.5958 48.5951 16.7257 48.5951C16.8557 48.5951 16.9717 48.6762 17.0158 48.7977C17.5414 50.2979 18.738 51.487 20.2477 52.0093C20.37 52.053 20.4515 52.1684 20.4515 52.2975C20.4515 52.4267 20.37 52.542 20.2477 52.5858C18.738 53.1081 17.5414 54.2972 17.0158 55.7975C16.9718 55.919 16.8558 56 16.7258 56C16.5958 56 16.4798 55.919 16.4358 55.7975C15.9101 54.2972 14.7135 53.1081 13.2038 52.5858C13.0815 52.5421 13 52.4268 13 52.2976C13 52.1684 13.0816 52.0531 13.2039 52.0094C14.7135 51.487 15.9101 50.2979 16.4357 48.7976ZM45.7261 12.2025C45.7702 12.081 45.8862 12 46.0162 12C46.1462 12 46.2622 12.081 46.3062 12.2025C46.8318 13.7028 48.0284 14.8919 49.5381 15.4142C49.6604 15.4579 49.742 15.5732 49.742 15.7024C49.742 15.8316 49.6604 15.9469 49.5381 15.9906C48.0284 16.513 46.8318 17.7021 46.3063 19.2024C46.2622 19.3239 46.1462 19.4049 46.0162 19.4049C45.8862 19.4049 45.7702 19.3238 45.7262 19.2023C45.2006 17.7021 44.004 16.513 42.4943 15.9907C42.372 15.947 42.2904 15.8316 42.2904 15.7025C42.2904 15.5733 42.372 15.458 42.4943 15.4142C44.004 14.8919 45.2006 13.7028 45.7261 12.2025ZM56.9842 24.6315C57.0282 24.51 57.1442 24.4289 57.2742 24.429C57.4042 24.429 57.5202 24.51 57.5642 24.6315C58.0899 26.1318 59.2865 27.3209 60.7962 27.8432C60.9185 27.887 61 28.0022 61 28.1314C61 28.2606 60.9184 28.3759 60.7961 28.4196C59.2865 28.942 58.0899 30.1311 57.5643 31.6313C57.5203 31.7529 57.4042 31.8339 57.2743 31.8339C57.1443 31.8339 57.0283 31.7528 56.9842 31.6313C56.4586 30.1311 55.262 28.942 53.7523 28.4197C53.63 28.376 53.5485 28.2606 53.5485 28.1314C53.5485 28.0023 53.63 27.887 53.7523 27.8432C55.262 27.3209 56.4586 26.1318 56.9842 24.6315Z" fill="#F3F0E9"/>
</svg>
