<svg width="69" height="69" viewBox="0 0 69 69" fill="none" xmlns="http://www.w3.org/2000/svg">
<circle cx="34.5" cy="34.5" r="34.5" fill="#A80000"/>
<path d="M52.2434 15.0032C45.0205 14.8737 36.783 18.6494 31.5689 24.5064C26.5861 24.6005 21.7343 26.6432 18.1621 30.2154C17.9539 30.4205 17.8799 30.7273 17.9709 31.0048C18.0634 31.2838 18.3039 31.4858 18.5938 31.5274L24.5356 32.3785L23.8017 33.2002C23.5288 33.5055 23.5427 33.9695 23.8325 34.2594L33.7412 44.168C33.8907 44.3176 34.0881 44.3931 34.287 44.3931C34.4704 44.3931 34.6539 44.3284 34.8004 44.1973L35.6221 43.4635L36.4731 49.4053C36.5148 49.6951 36.7429 49.9079 37.0189 50.0004C37.0898 50.0235 37.1638 50.0343 37.2394 50.0343C37.4583 50.0343 37.6819 49.9387 37.836 49.7861C41.3589 46.2632 43.4016 41.4114 43.4957 36.4286C49.3589 31.2037 53.1654 22.9693 52.9973 15.7556C52.9865 15.3455 52.6551 15.014 52.2434 15.0032ZM45.1392 28.3114C44.3883 29.0622 43.4016 29.4384 42.4134 29.4384C41.4252 29.4384 40.4385 29.0622 39.6876 28.3114C38.186 26.8082 38.186 24.363 39.6876 22.8599C41.1908 21.3567 43.636 21.3567 45.1392 22.8599C46.6423 24.363 46.6423 26.8098 45.1392 28.3114Z" fill="#F3F0E9"/>
<path d="M20.1997 41.0617C18.5501 42.7113 16.2853 50.164 16.0325 51.0074C15.9508 51.2787 16.0263 51.5732 16.2252 51.7736C16.3732 51.9216 16.569 52.0002 16.771 52.0002C16.845 52.0002 16.919 51.9894 16.993 51.9679C17.8363 51.715 25.289 49.4502 26.9386 47.8006C28.7964 45.9428 28.7964 42.9195 26.9386 41.0617C25.0793 39.2039 22.0575 39.2055 20.1997 41.0617Z" fill="#F3F0E9"/>
</svg>
