<svg width="68" height="61" viewBox="0 0 68 61" fill="none" xmlns="http://www.w3.org/2000/svg">
<path d="M56.4998 17.3049C56.4998 17.1471 56.5393 16.9888 56.5393 16.8309C56.9738 9.36522 54.8405 3.87444 50.4955 1.38614C45.9528 -1.26056 39.8302 0.00347177 33.7076 4.15108C27.5849 0.00347177 21.5016 -1.26056 16.9196 1.38614C11.745 4.38796 10.3231 10.5109 10.9153 17.3049C4.23965 20.544 0 25.2051 0 30.4589C0 35.7124 4.23965 40.3737 10.9153 43.6126C10.3229 50.4069 11.745 56.5296 16.9196 59.5317C22.0548 62.4943 28.0589 60.6771 33.7076 56.727C39.3562 60.6771 45.3604 62.4943 50.4955 59.5317C55.6702 56.5296 57.0921 50.4069 56.4998 43.6126C63.1755 40.3738 67.4151 35.7124 67.4151 30.4589C67.4151 25.2051 63.1755 20.544 56.4998 17.3049ZM48.5205 4.7831C51.2855 6.40251 52.7867 10.3526 52.6284 15.6854C49.8635 14.6979 46.8219 13.9473 43.5432 13.4338C41.4498 10.8266 39.2377 8.57507 37.0257 6.67902C41.0943 3.99308 45.2022 2.84755 48.5205 4.7831ZM50.9695 25.126C50.3769 23.862 49.745 22.6769 49.1131 21.571C48.4415 20.386 47.7304 19.2404 46.9799 18.174C48.8366 18.6085 50.6141 19.122 52.2337 19.7539C51.9571 21.4919 51.5622 23.3091 50.9695 25.126ZM52.1941 41.1634C50.5746 41.7956 48.8366 42.3091 46.9799 42.7436C47.7699 41.5982 48.481 40.4524 49.1131 39.3465C49.7845 38.2009 50.3769 37.0553 50.93 35.9099C51.4435 37.648 51.8779 39.4254 52.1941 41.1634ZM33.7076 44.2841C31.0611 44.2841 28.4538 44.126 26.0049 43.7706C24.5038 41.7956 23.0423 39.6624 21.7386 37.3715C20.6327 35.4753 19.4873 33.1052 18.4207 30.4983C19.4477 27.8516 20.6327 25.4815 21.7386 23.5461C22.8843 21.5315 24.4249 19.3195 26.1234 17.1074C28.5329 16.7913 31.1005 16.6334 33.7074 16.6334C36.3144 16.6334 38.8821 16.7913 41.2915 17.1074C43.0295 19.359 44.5306 21.571 45.6763 23.5461C46.8217 25.4817 47.9672 27.8911 49.0337 30.5377C48.1253 32.8288 46.9795 35.1199 45.6763 37.3715C44.3726 39.6624 42.9112 41.7956 41.41 43.7706C38.9613 44.126 36.354 44.2841 33.7076 44.2841ZM37.6972 48.1156C36.3935 49.4983 35.0507 50.7623 33.7076 51.7892C32.3644 50.7625 31.0215 49.4983 29.718 48.1156C31.0216 48.1948 32.3644 48.2343 33.7076 48.2343C35.0507 48.2343 36.3936 48.1948 37.6972 48.1156ZM15.2211 19.7539C16.8405 19.122 18.5785 18.6085 20.4352 18.174C19.6847 19.2404 18.9737 20.386 18.302 21.571C17.6701 22.6374 17.0775 23.7831 16.4851 25.0076C15.9716 23.2696 15.5372 21.4919 15.2211 19.7539ZM16.5247 35.9494C17.0776 37.174 17.7098 38.2799 18.3022 39.3465C18.9343 40.4524 19.6453 41.5981 20.4353 42.7436C18.5787 42.3091 16.8801 41.7956 15.2607 41.2031C15.5765 39.4649 16.0112 37.6873 16.5247 35.9494ZM29.8761 12.8017C31.1006 11.4983 32.404 10.2737 33.7076 9.16772C35.0507 10.2739 36.3145 11.4984 37.539 12.8017C36.2753 12.7228 35.0111 12.6833 33.7076 12.6833C32.404 12.6833 31.1399 12.7228 29.8761 12.8017ZM18.8947 4.7831C22.2521 2.84755 26.3604 4.03258 30.4288 6.67902C28.1773 8.57494 25.9652 10.8266 23.8718 13.4338C20.5931 13.9473 17.5121 14.7372 14.7471 15.6854C14.4706 10.8266 15.5372 6.71865 18.8947 4.7831ZM3.95011 30.4588C3.95011 27.0222 6.92572 23.862 11.508 21.4129C12.1006 24.4546 13.009 27.5357 14.1544 30.4588C13.0485 33.3819 12.1399 36.4628 11.5475 39.5044C6.92572 37.0555 3.95011 33.8954 3.95011 30.4588ZM18.8947 56.1345C15.5372 54.1989 14.5101 50.0512 14.7867 45.2322C17.5911 46.2197 20.7119 47.0097 24.0298 47.4837C25.9654 49.8933 28.1774 52.1844 30.4685 54.1594C26.0444 56.9639 21.8573 57.833 18.8947 56.1345ZM48.5205 56.1345C45.028 58.1488 40.3245 56.3341 36.9467 54.1594C39.2378 52.1844 41.4498 49.8932 43.3853 47.4837C46.7428 47.0097 49.8635 46.2197 52.6679 45.2322C52.9446 50.0907 51.8779 54.1989 48.5205 56.1345ZM55.9072 39.5044C55.3145 36.5023 54.4061 33.4609 53.3395 30.5772C54.5246 27.4567 55.4331 24.3755 55.9072 21.4129C60.4894 23.862 63.465 27.0222 63.465 30.4588C63.465 33.8954 60.4894 37.0555 55.9072 39.5044Z" fill="#A80000"/>
<path d="M33.7075 24.0597C31.3768 22.0055 27.7823 22.0847 25.5703 24.2967C23.2396 26.5876 23.2396 30.3797 25.5703 32.6709L33.7075 40.8082L41.8447 32.6709C44.1754 30.3799 44.1754 26.5876 41.8447 24.2967C39.6327 22.0847 36.0382 22.0057 33.7075 24.0597Z" fill="#A80000"/>
</svg>
