<svg width="69" height="69" viewBox="0 0 69 69" fill="none" xmlns="http://www.w3.org/2000/svg">
<circle cx="34.5" cy="34.5" r="34.5" fill="#A80000"/>
<path d="M34.7615 38.6416C38.8244 38.6416 42.1294 35.3366 42.1294 31.2737C42.1294 27.2108 38.8244 23.9058 34.7615 23.9058C30.6986 23.9058 27.3936 27.2108 27.3936 31.2737C27.3936 35.3366 30.6986 38.6416 34.7615 38.6416ZM30.2093 31.6335C30.689 31.1538 31.4661 31.1538 31.9458 31.6335L33.5335 33.2212L37.5772 29.1774C38.0569 28.6978 38.834 28.6978 39.3137 29.1774C39.7933 29.6571 39.7933 30.4342 39.3137 30.9139L34.4018 35.8258C34.1619 36.0657 33.8477 36.1856 33.5336 36.1856C33.2194 36.1856 32.9052 36.0657 32.6654 35.8258L30.2094 33.3698C29.7296 32.8902 29.7296 32.1131 30.2093 31.6335Z" fill="#F3F0E9"/>
<path d="M17.9291 30.4053C17.4494 30.885 17.4494 31.6621 17.9291 32.1418L20.2999 34.5126C20.6093 34.822 20.7304 35.2765 20.6177 35.6986L19.7507 38.9376C19.5756 39.5924 19.9641 40.2663 20.6189 40.4414L23.8579 41.3096C24.28 41.4223 24.6122 41.7545 24.7249 42.1778L25.5931 45.4157C25.7694 46.0716 26.447 46.4613 27.0969 46.2838L30.3348 45.4168C30.7628 45.3041 31.2126 45.424 31.522 45.7346L33.8928 48.1054C34.1327 48.3453 34.4469 48.4652 34.761 48.4652C35.0751 48.4652 35.3894 48.3453 35.6292 48.1054L38 45.7346C38.307 45.4264 38.7615 45.3053 39.186 45.4168L42.425 46.2838C43.0857 46.4626 43.7537 46.0716 43.9288 45.4157L44.797 42.1766C44.9097 41.7545 45.2419 41.4223 45.6652 41.3096L48.903 40.4414C49.5578 40.2663 49.9463 39.5924 49.7712 38.9376L48.9042 35.6998C48.7915 35.2764 48.9126 34.8219 49.222 34.5125L51.5928 32.1417C52.0725 31.6621 52.0725 30.8849 51.5928 30.4053L49.222 28.0344C48.9126 27.7251 48.7915 27.2705 48.9042 26.8484L49.7712 23.6094C49.9463 22.9547 49.5578 22.2807 48.903 22.1056L45.664 21.2374C45.2419 21.1247 44.9097 20.7925 44.797 20.3693L43.9288 17.1314C43.7525 16.4754 43.0845 16.0917 42.425 16.2632L39.1871 17.1302C38.7555 17.2381 38.3069 17.1218 37.9999 16.8124L35.6291 14.3597C35.1494 13.8801 34.3723 13.8801 33.8926 14.3597L31.5218 16.8124C31.2124 17.1218 30.7591 17.2394 30.3358 17.1302L27.0968 16.2632C26.448 16.0941 25.7693 16.4755 25.593 17.1314L24.7248 20.3704C24.6121 20.7925 24.2799 21.1247 23.8566 21.2374L20.6189 22.1056C19.9641 22.2807 19.5756 22.9547 19.7507 23.6094L20.6177 26.8473C20.7304 27.2706 20.6093 27.7251 20.2999 28.0345L17.9291 30.4053ZM34.7611 21.4496C40.1779 21.4496 44.585 25.8567 44.585 31.2735C44.585 36.6903 40.1779 41.0974 34.7611 41.0974C29.3443 41.0974 24.9372 36.6903 24.9372 31.2735C24.9372 25.8567 29.3443 21.4496 34.7611 21.4496Z" fill="#F3F0E9"/>
<path d="M46.9867 43.4983L46.3019 46.0515C45.8726 47.6596 44.412 48.7832 42.7499 48.7832C42.4249 48.7832 42.0999 48.7401 41.7845 48.655L39.2362 47.9726L38.1611 49.0477L41.7246 55.3012C41.938 55.6694 42.3266 55.902 42.7511 55.9152C42.7643 55.9152 42.7763 55.9152 42.7883 55.9152C43.1996 55.9152 43.5857 55.7089 43.8136 55.3636L46.4998 51.2116L51.3686 50.919C51.7943 50.8938 52.1756 50.6504 52.3771 50.2751C52.5786 49.901 52.5714 49.4477 52.3591 49.0795L48.849 42.9995L46.9867 43.4983Z" fill="#F3F0E9"/>
<path d="M17.1463 50.2747C17.3478 50.65 17.7291 50.8935 18.1548 50.9186L23.0236 51.2112L25.7099 55.3632C25.9377 55.7086 26.3238 55.9148 26.7351 55.9148C26.7471 55.9148 26.7591 55.9148 26.7723 55.9148C27.1969 55.9016 27.5854 55.669 27.7988 55.3008L31.3623 49.0473L30.2872 47.9722L27.7329 48.6558C27.4295 48.7385 27.1045 48.7829 26.7784 48.7829C25.1162 48.7829 23.6532 47.6605 23.2215 46.0535L22.5368 43.498L20.6748 42.9985L17.1643 49.0791C16.952 49.4473 16.9448 49.9006 17.1463 50.2747Z" fill="#F3F0E9"/>
</svg>
