<svg width="69" height="69" viewBox="0 0 69 69" fill="none" xmlns="http://www.w3.org/2000/svg">
<rect width="69" height="69" rx="34.5" fill="#A80000"/>
<path fill-rule="evenodd" clip-rule="evenodd" d="M27.101 32.0657V24.3356L39.5485 19L51.996 24.3356V34.4007C51.996 41.4048 46.8983 47.4573 40.0021 48.6595L39.5485 48.7389L39.0948 48.6595C37.8357 48.4401 36.6365 48.0588 35.5173 47.5397C35.5125 47.1675 35.4095 46.8181 35.2331 46.516C35.7363 46.32 36.1467 45.9344 36.3753 45.4483C37.3319 45.9104 38.3596 46.2523 39.4403 46.4526C39.5118 46.4658 39.585 46.4658 39.6564 46.4526C45.4213 45.3851 49.6768 40.291 49.6768 34.4185V26.1934C49.6768 25.956 49.5353 25.7415 49.3171 25.6481L39.7819 21.5654C39.6328 21.5015 39.464 21.5015 39.3149 21.5654L29.7829 25.6481C29.5648 25.7416 29.4233 25.956 29.4233 26.1934V34.4185C29.4233 34.5588 29.4258 34.6988 29.4306 34.8383C29.0884 33.6172 28.2263 32.6074 27.101 32.0657ZM31.8415 39.4621C31.0527 37.9385 30.6097 36.219 30.6097 34.4185V26.5846L39.5485 22.7559L48.4905 26.5846V34.4185C48.4905 39.6853 44.6998 44.2583 39.5485 45.2655C38.4808 45.0566 37.4714 44.6943 36.5421 44.2043C36.4363 43.5954 36.0653 43.0746 35.5536 42.7661C35.7965 42.4241 35.9397 42.0067 35.9397 41.5576C35.9397 40.4049 34.9969 39.4621 33.8442 39.4621H31.8415ZM34.1495 34.7941L37.1503 37.795C37.6737 38.3216 38.5239 38.3216 39.0473 37.795C41.6231 35.2223 42.3939 34.4166 44.9538 31.8314C45.474 31.3079 45.474 30.461 44.9475 29.9376C44.4241 29.4173 43.5771 29.4205 43.0569 29.9439L38.0988 34.9496L36.0464 32.8972C35.5198 32.3738 34.6729 32.3738 34.1495 32.8972C33.6229 33.4206 33.6229 34.2707 34.1495 34.7941ZM20.0533 41.1694C20.1516 41.1694 20.246 41.2085 20.3154 41.278C20.385 41.3475 20.424 41.4418 20.424 41.5401C20.424 43.0227 20.424 48.516 20.424 49.9985C20.424 50.2032 20.258 50.3692 20.0533 50.3692C19.3949 50.3692 18.0291 50.3692 17.3707 50.3692C17.2724 50.3692 17.1781 50.3301 17.1085 50.2606C17.0391 50.191 17 50.0968 17 49.9985C17 48.516 17 43.0227 17 41.5401C17 41.3354 17.166 41.1694 17.3707 41.1694H20.0533ZM27.4869 45.2452C27.6493 45.7127 27.9734 46.1065 28.3913 46.3584C28.1484 46.7005 28.0053 47.1178 28.0053 47.5669C28.0053 48.1548 28.2507 48.6888 28.6441 49.0709C28.2506 49.4523 28.0053 49.9858 28.0053 50.5739C28.0053 50.9605 28.1114 51.3235 28.2958 51.6353C27.2542 51.8129 26.3416 51.9521 25.5137 51.9902C24.0154 52.0591 22.8171 51.7777 21.613 50.7055C21.6168 49.7965 21.616 46.5193 21.6106 40.8751C22.4922 40.2321 23.4556 39.6146 24.2229 38.8673C25.1541 37.9603 25.8096 36.8717 25.8096 35.3821V32.8781C27.2822 33.1582 28.405 34.4601 28.405 36.0109V38.4122C28.3345 38.842 28.0484 39.4453 27.53 39.9637C27.328 40.1657 27.2987 40.4829 27.4602 40.7185C29.0032 42.9698 26.6554 44.4884 25.8036 44.9776C25.5197 45.1407 25.4216 45.5034 25.5846 45.7873C25.7477 46.0712 26.1105 46.1693 26.3944 46.0064C26.6828 45.8406 27.0814 45.584 27.4869 45.2452ZM29.8345 51.443C29.8274 51.4407 29.8202 51.4384 29.8131 51.4361C29.4529 51.3151 29.1916 50.9736 29.1916 50.5739C29.1916 50.0737 29.6006 49.6646 30.1007 49.6646H30.1034L30.6002 49.6624L32.5253 49.6646H32.5261C33.0262 49.6646 33.4352 50.0737 33.4352 50.5739C33.4352 51.074 33.0262 51.483 32.5261 51.483H30.1007C30.0082 51.483 29.9188 51.469 29.8345 51.443ZM32.5267 48.4783H32.5261L30.5999 48.4761C30.5988 48.4761 30.5977 48.4761 30.5966 48.4761L30.1007 48.4783H30.0981C29.5989 48.4769 29.1916 48.0664 29.1916 47.5669C29.1916 47.0668 29.6006 46.6577 30.1007 46.6577H33.422C33.9222 46.6577 34.3312 47.0668 34.3312 47.5669C34.3312 48.0687 33.9224 48.4783 33.422 48.4783H32.5267ZM29.4675 45.4714C28.9674 45.4714 28.5583 45.0624 28.5583 44.5623C28.5583 44.0622 28.9674 43.6531 29.4675 43.6531H34.4774C34.9776 43.6531 35.3867 44.0622 35.3867 44.5623C35.3867 45.0624 34.9776 45.4714 34.4774 45.4714H29.4675ZM33.8442 42.4668H30.1007C29.6006 42.4668 29.1916 42.0577 29.1916 41.5576C29.1916 41.0575 29.6006 40.6484 30.1007 40.6484H33.8442C34.3444 40.6484 34.7534 41.0575 34.7534 41.5576C34.7534 42.0577 34.3444 42.4668 33.8442 42.4668Z" fill="#F3F0E9"/>
</svg>
