<svg width="56" height="56" viewBox="0 0 56 56" fill="none" xmlns="http://www.w3.org/2000/svg">
<path d="M34.5667 29.6419C34.5667 34.1679 30.8845 37.8502 26.3584 37.8502C21.8324 37.8502 18.1501 34.1679 18.1501 29.6419C18.1501 25.1157 21.8324 21.4334 26.3584 21.4334C28.0293 21.4334 29.5844 21.9365 30.8826 22.7974L35.6428 18.0372C35.5354 17.9587 35.4275 17.8805 35.3176 17.8037C32.0894 15.5478 28.8557 14.4077 25.6924 14.4077C25.4027 14.4077 25.1137 14.4172 24.8252 14.4364C21.0084 14.6961 17.4527 16.3953 14.8153 19.2205C12.1714 22.0483 10.7158 25.7489 10.7158 29.6419C10.7158 33.8187 12.3433 37.7466 15.2984 40.7017C18.2537 43.657 22.1815 45.2844 26.3583 45.2844C30.5351 45.2844 34.463 43.6569 37.4182 40.7017C40.3733 37.7465 42.0007 33.8187 42.0007 29.6419C42.0007 26.2038 40.6123 22.9031 38.1056 20.2145L33.2024 25.1176C34.0637 26.4158 34.5667 27.971 34.5667 29.6419Z" fill="#A80000"/>
<path d="M25.1985 28.4819L28.4833 25.1972C27.8396 24.8882 27.119 24.7148 26.3587 24.7148C23.6419 24.7148 21.4316 26.9252 21.4316 29.6421C21.4316 32.3588 23.6419 34.5691 26.3587 34.5691C29.0754 34.5691 31.2857 32.3588 31.2857 29.6421C31.2857 28.8817 31.1123 28.161 30.8034 27.5174L27.5188 30.802L25.1985 28.4819Z" fill="#A80000"/>
<path d="M42.4686 15.8518L40.4272 17.8932C43.5491 21.1986 45.2818 25.3181 45.2818 29.6422C45.2818 34.6956 43.313 39.4473 39.7381 43.0222C36.1631 46.5972 31.4113 48.5661 26.3581 48.5661C21.3048 48.5661 16.553 46.5972 12.978 43.0222C9.40297 39.4473 7.43422 34.6955 7.43422 29.6422C7.43422 24.9142 9.20402 20.4177 12.4173 16.9809C15.6235 13.5461 19.9522 11.4794 24.6049 11.1628C28.8105 10.8849 33.0455 12.2134 37.1968 15.1145C37.4663 15.3029 37.7284 15.4969 37.9857 15.6944L40.1485 13.5316L40.4949 7.38574C36.3087 4.71524 31.4436 3.28418 26.3582 3.28418C19.3177 3.28418 12.6985 6.02588 7.72023 11.0042C2.7417 15.9825 0 22.6017 0 29.6421C0 36.6826 2.7417 43.3018 7.72013 48.2801C12.6985 53.2584 19.3176 56.0002 26.3581 56.0002C33.3985 56.0002 40.0177 53.2585 44.996 48.2801C49.9743 43.3017 52.716 36.6826 52.716 29.6421C52.716 24.5567 51.2848 19.6916 48.6145 15.5054L42.4686 15.8518Z" fill="#A80000"/>
<path d="M43.4922 12.5075L50.1967 12.1296L55.9997 6.32647L49.6733 0L43.8702 5.803L43.4922 12.5075Z" fill="#A80000"/>
</svg>
