<svg width="54" height="56" viewBox="0 0 54 56" fill="none" xmlns="http://www.w3.org/2000/svg">
<path d="M3.93368 26.6293C3.80363 26.3534 3.69327 26.072 3.59844 25.7871L0.935414 27.0556C0.119705 27.4442 -0.228322 28.4192 0.157111 29.2364L2.96703 35.1963C3.15307 35.5908 3.48863 35.8951 3.89944 36.0417C4.07816 36.1054 4.26464 36.1371 4.4509 36.1371C4.69273 36.1371 4.9339 36.0837 5.15647 35.9777L7.81272 34.7123C7.64407 34.4483 7.49029 34.1728 7.35477 33.8855L3.93368 26.6293Z" fill="#F3F0E9"/>
<path d="M32.334 30.417L29.3054 31.8414L31.2001 39.5406H22.4155L23.6564 34.4982L19.8351 36.2953L15.4864 53.967C15.2699 54.8468 15.8076 55.7356 16.6874 55.952C17.5669 56.1684 18.456 55.6308 18.6724 54.751L21.608 42.8218H32.0075L34.943 54.751C35.1271 55.4992 35.7973 56 36.5348 56C36.6646 56 36.7965 55.9844 36.9281 55.952C37.808 55.7356 38.3457 54.8468 38.1291 53.967L32.334 30.417Z" fill="#F3F0E9"/>
<path d="M8.91776 19.6155C7.89862 20.0961 7.12754 20.9447 6.74659 22.0052C6.36575 23.0657 6.42065 24.211 6.90113 25.2302L10.3221 32.4863C11.041 34.0108 12.5617 34.9056 14.1445 34.9056C14.746 34.9056 15.3565 34.7764 15.9354 34.5034L36.4442 24.8581L29.4251 9.9707L8.91776 19.6155Z" fill="#F3F0E9"/>
<path d="M53.1497 18.8204L44.7201 0.941291C44.3337 0.121645 43.3559 -0.229226 42.5365 0.156972L38.9087 1.86736C37.0923 2.72397 36.171 4.71796 36.5909 6.60083L32.3945 8.57437L39.4137 23.4617L43.6084 21.4889C44.4156 22.527 45.6595 23.1169 46.9453 23.1169C47.5472 23.1169 48.1585 22.9875 48.738 22.7143L52.3656 21.0038C53.185 20.6175 53.5361 19.6398 53.1497 18.8204Z" fill="#F3F0E9"/>
</svg>
